<?xml version="1.0" encoding="UTF-8"?>
<!-- Generated by Pixelmator Pro 4.0 -->
<svg width="2115" height="2094" viewBox="0 0 2115 2094" xmlns="http://www.w3.org/2000/svg">
    <linearGradient id="linearGradient1" x1="378.333105" y1="347.955238" x2="1813.028671" y2="1788.290867" gradientUnits="userSpaceOnUse">
        <stop offset="0" stop-color="#434343" stop-opacity="1"/>
        <stop offset="1" stop-color="#000000" stop-opacity="1"/>
    </linearGradient>
    <path id="Shape" fill="url(#linearGradient1)" fill-rule="evenodd" stroke="none" d="M 2114.820313 714.726563 L 2114.820313 82 C 2114.816895 36.712646 2078.104248 0 2032.817017 0 L 82 0 C 36.71265 0 0 36.712646 0 82 L 0 714.726563 C 0 760.010376 36.71265 796.723022 82 796.723022 L 327.085938 796.726563 L 327.085938 428.992188 C 327.085144 369.342041 375.438385 320.98877 435.085938 320.992188 L 1679.59375 320.992188 C 1739.237427 320.98877 1787.590698 369.342041 1787.59375 428.992188 L 1787.59375 796.726563 L 2032.820313 796.726563 C 2078.104248 796.723022 2114.816895 760.010376 2114.820313 714.726563 Z M 1341.75 1110.71875 C 1341.749634 1078.136475 1368.164917 1051.721313 1400.749634 1051.721313 L 1787.59375 1051.71875 L 1787.59375 796.726563 L 327.085938 796.726563 L 327.085938 1051.71875 L 983.617188 1051.71875 C 1024.486816 1051.721313 1057.617798 1084.852295 1057.617798 1125.721313 L 1057.617188 1781.492188 L 1341.75 1781.492188 Z M 1057.617188 2020 L 1057.617188 1781.492188 L 435.085938 1781.492188 C 375.438385 1781.494385 327.085144 1733.141113 327.085938 1673.492188 L 327.085938 1051.71875 L 89.375 1051.71875 C 48.502815 1051.721313 15.371888 1084.852295 15.371888 1125.721313 L 15.375 2020 C 15.371888 2060.869141 48.502815 2094 89.371887 2094 L 983.617188 2094 C 1024.486816 2094 1057.617798 2060.869141 1057.617188 2020 Z M 2108.195313 2034.96875 L 2108.195313 1110.71875 C 2108.193359 1078.136475 2081.77832 1051.721313 2049.193359 1051.721313 L 1787.59375 1051.71875 L 1787.59375 1673.492188 C 1787.590698 1733.141113 1739.237427 1781.494385 1679.590698 1781.494385 L 1341.75 1781.492188 L 1341.75 2034.96875 C 1341.749634 2067.552002 1368.164917 2093.967041 1400.749634 2093.967041 L 2049.195313 2093.96875 C 2081.77832 2093.967041 2108.193359 2067.552002 2108.195313 2034.96875 Z"/>
</svg>
