<?xml version="1.0" encoding="UTF-8"?>
<!-- Generated by Pixelmator Pro 4.0 -->
<svg width="10376" height="2096" viewBox="0 0 10376 2096" xmlns="http://www.w3.org/2000/svg">
    <path id="OrgFrame" fill="#000000" stroke="none" d="M 9828.169922 1669.127563 C 9715.107422 1669.127563 9615.416016 1645.063843 9529.091797 1596.936035 C 9442.767578 1548.808716 9375.542969 1480.819824 9327.415039 1392.967529 C 9279.287109 1305.115234 9255.223633 1201.604004 9255.223633 1082.430908 L 9255.223633 1054.929077 C 9255.223633 935.755859 9278.905273 832.244751 9326.268555 744.392456 C 9373.632813 656.540527 9440.09375 588.551636 9525.654297 540.423828 C 9611.214844 492.296143 9710.524414 468.232422 9823.585938 468.232422 C 9935.120117 468.232422 10032.137695 493.059814 10114.642578 542.715576 C 10197.147461 592.371216 10261.316406 661.123779 10307.15332 748.976074 C 10352.988281 836.828369 10375.90625 938.811646 10375.90625 1054.929077 L 10375.90625 1153.47583 L 9548.572266 1153.47583 C 9551.62793 1231.397095 9580.65625 1294.802612 9635.660156 1343.694092 C 9690.663086 1392.585693 9757.887695 1417.03125 9837.336914 1417.03125 C 9918.313477 1417.03125 9977.899414 1399.460938 10016.095703 1364.320068 C 10054.292969 1329.179321 10083.321289 1290.219238 10103.183594 1247.439453 L 10339.237305 1371.195557 C 10317.847656 1410.920044 10286.90918 1454.081421 10246.420898 1500.681396 C 10205.932617 1547.28125 10152.076172 1587.004883 10084.849609 1619.854126 C 10017.623047 1652.703369 9932.064453 1669.127563 9828.169922 1669.127563 Z M 9550.864258 938.04834 L 10082.557617 938.04834 C 10076.446289 872.350342 10050.09082 819.639648 10003.491211 779.915161 C 9956.891602 740.19104 9896.160156 720.328735 9821.293945 720.328735 C 9743.373047 720.328735 9681.495117 740.19104 9635.660156 779.915161 C 9589.824219 819.639648 9561.558594 872.350342 9550.864258 938.04834 Z M 7353.04248 1637.04248 L 7353.04248 500.317871 L 7637.224609 500.317871 L 7637.224609 624.073975 L 7678.476563 624.073975 C 7698.338867 585.877319 7731.187012 552.646606 7777.023438 524.381592 C 7822.858398 496.115601 7883.208496 481.983154 7958.074219 481.983154 C 8039.050781 481.983154 8103.983887 497.643921 8152.875488 528.964844 C 8201.767578 560.286133 8239.199219 601.155884 8265.172852 651.575317 L 8306.424805 651.575317 C 8332.399414 602.683838 8369.067383 562.195923 8416.430664 530.11084 C 8463.793945 498.025879 8531.019531 481.983154 8618.107422 481.983154 C 8688.389648 481.983154 8752.176758 496.879761 8809.47168 526.673218 C 8866.766602 556.466187 8912.601563 601.537842 8946.978516 661.888306 C 8981.355469 722.238892 8998.543945 798.249146 8998.543945 889.920898 L 8998.543945 1637.04248 L 8709.779297 1637.04248 L 8709.779297 910.546997 C 8709.779297 847.904419 8693.737305 800.923462 8661.651367 769.602173 C 8629.566406 738.280762 8584.495117 722.620728 8526.435547 722.620728 C 8460.738281 722.620728 8409.9375 743.628662 8374.033203 785.644897 C 8338.12793 827.661011 8320.175781 887.628906 8320.175781 965.549683 L 8320.175781 1637.04248 L 8031.410645 1637.04248 L 8031.410645 910.546997 C 8031.410645 847.904419 8015.368652 800.923462 7983.283203 769.602173 C 7951.19873 738.280762 7906.127441 722.620728 7848.068848 722.620728 C 7782.370117 722.620728 7731.569824 743.628662 7695.665039 785.644897 C 7659.759766 827.661011 7641.807617 887.628906 7641.807617 965.549683 L 7641.807617 1637.04248 Z M 6381.326172 1669.127563 C 6300.349609 1669.127563 6227.777344 1654.994995 6163.606445 1626.729492 C 6099.4375 1598.463989 6048.63623 1557.212402 6011.203613 1502.9729 C 5973.77002 1448.734009 5955.055176 1382.654907 5955.055176 1304.733765 C 5955.055176 1226.8125 5973.77002 1161.497681 6011.203613 1108.786133 C 6048.63623 1056.075073 6100.583008 1016.350952 6167.044922 989.613403 C 6233.507324 962.875732 6309.51709 949.507324 6395.07666 949.507324 L 6706.759766 949.507324 L 6706.759766 885.33728 C 6706.759766 831.862061 6689.953613 787.936523 6656.34082 753.559814 C 6622.727539 719.182739 6569.253418 701.994751 6495.915527 701.994751 C 6424.105957 701.994751 6370.632324 718.418945 6335.490723 751.2677 C 6300.349609 784.116943 6277.432617 826.514648 6266.737305 878.461914 L 6000.890625 789.08252 C 6019.224609 731.02356 6048.635254 677.93103 6089.124512 629.803345 C 6129.612793 581.675537 6183.850586 542.715576 6251.840332 512.922485 C 6319.831055 483.12915 6402.71582 468.232422 6500.5 468.232422 C 6650.22998 468.232422 6768.637207 505.664917 6855.726074 580.529907 C 6942.814453 655.395264 6986.357422 763.871948 6986.357422 905.963257 L 6986.357422 1329.943481 C 6986.357422 1375.779175 7007.747559 1398.696777 7050.527832 1398.696777 L 7142.199219 1398.696777 L 7142.199219 1637.04248 L 6949.688965 1637.04248 C 6893.157715 1637.04248 6846.558594 1623.291748 6809.890137 1595.790405 C 6773.221191 1568.288696 6754.887207 1531.620728 6754.887207 1485.784668 L 6754.887207 1483.49292 L 6711.343262 1483.49292 C 6705.231934 1501.827393 6691.481934 1525.890625 6670.091309 1555.684082 C 6648.70166 1585.477417 6615.089355 1611.832764 6569.253418 1634.750854 C 6523.416992 1657.668457 6460.775391 1669.127563 6381.326172 1669.127563 Z M 6431.745605 1435.365601 C 6512.723145 1435.365601 6578.801758 1412.829834 6629.98584 1367.757813 C 6681.168945 1322.685791 6706.759766 1262.718384 6706.759766 1187.852539 L 6706.759766 1164.934937 L 6415.703125 1164.934937 C 6362.227539 1164.934937 6320.211914 1176.394043 6289.655762 1199.311646 C 6259.097656 1222.229736 6243.819336 1254.314331 6243.819336 1295.566772 C 6243.819336 1336.818848 6259.861328 1370.431396 6291.946777 1396.405273 C 6324.032227 1422.378662 6370.631348 1435.365601 6431.745605 1435.365601 Z M 5148.34668 1637.04248 L 5148.34668 500.317871 L 5432.527832 500.317871 L 5432.527832 628.657715 L 5473.779785 628.657715 C 5490.586914 582.821533 5518.469727 549.208984 5557.430176 527.819214 C 5596.390137 506.428711 5641.844727 495.733765 5693.791504 495.733765 L 5831.29834 495.733765 L 5831.29834 752.413818 L 5689.208008 752.413818 C 5615.870605 752.413818 5555.52002 771.893799 5508.156738 810.854614 C 5460.792969 849.814941 5437.111816 909.782471 5437.111816 990.759399 L 5437.111816 1637.04248 Z M 3915.367188 1637.04248 L 3915.367188 32.793945 L 4923.751953 32.793945 L 4923.751953 307.807617 L 4217.882324 307.807617 L 4217.882324 695.119385 L 4868.749023 695.119385 L 4868.749023 970.133423 L 4217.882324 970.133423 L 4217.882324 1637.04248 Z M 2407.373047 1073.263916 L 2407.373047 1036.595093 C 2407.373047 917.421509 2431.054688 815.438232 2478.418457 730.641724 C 2525.781982 645.845581 2588.805664 580.912109 2667.490723 535.84021 C 2746.175537 490.768188 2832.116455 468.232422 2925.316162 468.232422 C 3029.210938 468.232422 3107.894531 486.566772 3161.369873 523.235596 C 3214.844971 559.904297 3253.805176 598.100098 3278.250977 637.824707 L 3319.503174 637.824707 L 3319.503174 500.317871 L 3603.684326 500.317871 L 3603.684326 1838.71936 C 3603.684326 1916.640503 3580.766846 1978.900024 3534.930908 2025.5 C 3489.094971 2072.099854 3427.981445 2095.399414 3351.588135 2095.399414 L 2590.71582 2095.399414 L 2590.71582 1843.303101 L 3250.749756 1843.303101 C 3293.530029 1843.303101 3314.919678 1820.385376 3314.919678 1774.549683 L 3314.919678 1478.909302 L 3273.667236 1478.909302 C 3258.38916 1503.355225 3236.999268 1528.182617 3209.497559 1553.392334 C 3181.99585 1578.602051 3145.327881 1599.609985 3099.491699 1616.416504 C 3053.656006 1633.2229 2995.5979 1641.626221 2925.316162 1641.626221 C 2832.116455 1641.626221 2746.175537 1619.090332 2667.490723 1574.018311 C 2588.805664 1528.946411 2525.781982 1464.013428 2478.418457 1379.216797 C 2431.054688 1294.42041 2407.373047 1192.437012 2407.373047 1073.263916 Z M 3007.820313 1389.529785 C 3096.436768 1389.529785 3170.536865 1361.264771 3230.123535 1304.733765 C 3289.710449 1248.202759 3319.503174 1168.755249 3319.503174 1066.388184 L 3319.503174 1043.470459 C 3319.503174 939.575806 3290.092285 859.746094 3231.269775 803.979248 C 3172.446533 748.211914 3097.964355 720.328735 3007.820313 720.328735 C 2919.20459 720.328735 2845.104248 748.211914 2785.517334 803.979248 C 2725.930664 859.746094 2696.137939 939.575806 2696.137939 1043.470459 L 2696.137939 1066.388184 C 2696.137939 1168.755249 2725.930664 1248.202759 2785.517334 1304.733765 C 2845.104248 1361.264771 2919.20459 1389.529785 3007.820313 1389.529785 Z M 1596.081543 1637.04248 L 1596.081543 500.317871 L 1880.263184 500.317871 L 1880.263184 628.657715 L 1921.515137 628.657715 C 1938.321655 582.821533 1966.204468 549.208984 2005.164795 527.819214 C 2044.12561 506.428711 2089.579102 495.733765 2141.526123 495.733765 L 2279.033203 495.733765 L 2279.033203 752.413818 L 2136.942627 752.413818 C 2063.605225 752.413818 2003.255493 771.893799 1955.891846 810.854614 C 1908.528198 849.814941 1884.846436 909.782471 1884.846436 990.759399 L 1884.846436 1637.04248 Z M 661.03363 1669.127563 C 459.355774 1669.127563 298.932526 1613.743408 179.759125 1502.9729 C 60.5858 1392.203003 1 1233.689453 1 1027.427734 L 1 642.408325 C 1 436.146606 60.5858 277.633057 179.759125 166.863159 C 298.932526 56.09314 459.355774 0.708496 661.03363 0.708496 C 862.711731 0.708496 1023.13501 56.09314 1142.30835 166.863159 C 1261.481812 277.633057 1321.067383 436.146606 1321.067383 642.408325 L 1321.067383 1027.427734 C 1321.067383 1233.689453 1261.481812 1392.203003 1142.30835 1502.9729 C 1023.13501 1613.743408 862.711731 1669.127563 661.03363 1669.127563 Z M 661.03363 1398.696777 C 774.095703 1398.696777 861.946411 1365.848389 924.588989 1300.150146 C 987.231201 1234.452148 1018.552063 1146.601318 1018.552063 1036.595093 L 1018.552063 633.240967 C 1018.552063 523.235107 987.231201 435.384033 924.588989 369.686035 C 861.946411 303.988037 774.095703 271.139282 661.03363 271.139282 C 549.499756 271.139282 462.030884 303.988037 398.624542 369.686035 C 335.218201 435.384033 303.515411 523.235107 303.515411 633.240967 L 303.515411 1036.595093 C 303.515411 1146.601318 335.218201 1234.452148 398.624542 1300.150146 C 462.030884 1365.848389 549.499756 1398.696777 661.03363 1398.696777 Z"/>
</svg>
